# Blender v2.76 (sub 0) OBJ File: 'tank.blend'
# www.blender.org
mtllib TankLights.mtl
o TankLights_Untitled.012
v 0.528781 0.980254 0.959292
v 0.618576 0.985036 0.900414
v 0.528781 1.074536 0.907682
v 0.438986 0.985036 0.900414
v 0.528781 0.895536 0.893145
v 0.563144 0.980618 0.954810
v 0.592275 0.981655 0.942047
v 0.611740 0.983206 0.922945
v 0.528781 1.014868 0.957591
v 0.528781 1.044941 0.947186
v 0.528781 1.065893 0.929661
v 0.494418 0.980618 0.954810
v 0.465286 0.981655 0.942047
v 0.445821 0.983206 0.922945
v 0.528781 0.946368 0.952028
v 0.528781 0.918369 0.936907
v 0.528781 0.900519 0.916230
v 0.611740 1.019286 0.903196
v 0.592275 1.048322 0.905554
v 0.563144 1.067723 0.907129
v 0.494418 1.067723 0.907129
v 0.465286 1.048322 0.905554
v 0.445821 1.019286 0.903196
v 0.445821 0.950786 0.897632
v 0.465286 0.921750 0.895274
v 0.494418 0.902349 0.893699
v 0.563144 0.902349 0.893699
v 0.592275 0.921750 0.895274
v 0.611740 0.950786 0.897632
v 0.565439 1.017670 0.951455
v 0.596958 1.020886 0.932442
v 0.567106 1.050641 0.934858
v 0.492122 1.017670 0.951455
v 0.490456 1.050641 0.934859
v 0.460603 1.020886 0.932442
v 0.492122 0.944594 0.945520
v 0.460603 0.944488 0.926237
v 0.490456 0.914733 0.923821
v 0.565439 0.944593 0.945520
v 0.567106 0.914733 0.923821
v 0.596959 0.944488 0.926237
v -0.528781 0.980254 0.959292
v -0.563144 0.980618 0.954810
v -0.528781 1.014868 0.957592
v -0.592276 0.981654 0.942047
v -0.565440 1.017670 0.951455
v -0.528781 1.044941 0.947187
v -0.611741 0.983206 0.922946
v -0.596959 1.020886 0.932442
v -0.567106 1.050640 0.934859
v -0.528781 1.065893 0.929661
v -0.618576 0.985036 0.900414
v -0.611741 1.019286 0.903196
v -0.592276 1.048322 0.905554
v -0.563144 1.067723 0.907129
v -0.528781 1.074536 0.907683
v -0.494418 0.980618 0.954810
v -0.492123 1.017670 0.951455
v -0.465287 0.981655 0.942047
v -0.490456 1.050640 0.934859
v -0.460603 1.020886 0.932442
v -0.445821 0.983206 0.922946
v -0.494418 1.067723 0.907130
v -0.465287 1.048322 0.905554
v -0.445822 1.019286 0.903196
v -0.438986 0.985036 0.900414
v -0.528781 0.946368 0.952028
v -0.492123 0.944593 0.945520
v -0.528781 0.918368 0.936907
v -0.460603 0.944487 0.926237
v -0.490456 0.914732 0.923821
v -0.528781 0.900519 0.916230
v -0.445821 0.950786 0.897632
v -0.465287 0.921750 0.895274
v -0.494418 0.902349 0.893699
v -0.528781 0.895536 0.893145
v -0.565440 0.944593 0.945520
v -0.567106 0.914733 0.923821
v -0.596959 0.944487 0.926237
v -0.563144 0.902349 0.893699
v -0.592276 0.921750 0.895274
v -0.611741 0.950786 0.897632
vt 0.625000 1.000000
vt 0.500000 0.875000
vt 0.750000 0.875000
vt 0.500000 0.750000
vt 0.625000 0.804087
vt 0.750000 0.750000
vt 0.500000 0.625000
vt 0.581505 0.663472
vt 0.668495 0.663472
vt 0.750000 0.625000
vt 0.500000 0.500000
vt 0.562500 0.500000
vt 0.625000 0.500000
vt 0.687500 0.500000
vt 0.750000 0.500000
vt 0.875000 1.000000
vt 1.000000 0.875000
vt 0.875000 0.804087
vt 1.000000 0.750000
vt 0.831505 0.663472
vt 0.918495 0.663472
vt 1.000000 0.625000
vt 0.812500 0.500000
vt 0.875000 0.500000
vt 0.937500 0.500000
vt 1.000000 0.500000
vt 0.125000 1.000000
vt 0.000000 0.875000
vt 0.250000 0.875000
vt 0.000000 0.750000
vt 0.125000 0.804087
vt 0.250000 0.750000
vt 0.000000 0.625000
vt 0.081505 0.663472
vt 0.168495 0.663472
vt 0.250000 0.625000
vt 0.000000 0.500000
vt 0.062500 0.500000
vt 0.125000 0.500000
vt 0.187500 0.500000
vt 0.250000 0.500000
vt 0.375000 1.000000
vt 0.375000 0.804087
vt 0.331505 0.663472
vt 0.418495 0.663472
vt 0.312500 0.500000
vt 0.375000 0.500000
vt 0.437500 0.500000
vn -0.000000 -0.080900 0.996700
vn 0.270500 -0.077900 0.959600
vn -0.000000 0.189800 0.981800
vn 0.270500 -0.078000 0.959500
vn 0.571700 -0.066400 0.817800
vn 0.318700 0.242400 0.916300
vn 0.270600 -0.077900 0.959500
vn 0.318700 0.242400 0.916400
vn -0.000000 0.494800 0.869000
vn 0.873500 -0.039400 0.485200
vn 0.700200 0.343500 0.625900
vn 0.318700 0.242300 0.916400
vn 0.700100 0.343500 0.625900
vn 0.402500 0.633300 0.661000
vn -0.000000 0.816800 0.576900
vn 0.957200 -0.023400 0.288500
vn 0.867400 0.317700 0.382900
vn 0.873500 -0.039400 0.485300
vn 0.663900 0.609500 0.433200
vn 0.402500 0.633300 0.660900
vn 0.663900 0.609600 0.433200
vn 0.366700 0.825900 0.428300
vn 0.000000 0.816900 0.576800
vn -0.000000 0.930600 0.366000
vn -0.270500 -0.077900 0.959600
vn -0.318700 0.242400 0.916400
vn -0.318700 0.242400 0.916300
vn -0.270500 -0.077900 0.959500
vn -0.571700 -0.066400 0.817800
vn -0.402500 0.633300 0.661000
vn -0.318700 0.242300 0.916400
vn -0.700100 0.343500 0.625900
vn -0.700200 0.343500 0.625900
vn -0.873500 -0.039400 0.485200
vn -0.366700 0.825900 0.428300
vn -0.402500 0.633300 0.660900
vn -0.663900 0.609600 0.433200
vn -0.663900 0.609500 0.433200
vn -0.867500 0.317700 0.382900
vn -0.873500 -0.039400 0.485300
vn -0.867400 0.317700 0.382900
vn -0.957200 -0.023400 0.288500
vn 0.000000 -0.081000 0.996700
vn -0.270500 -0.078000 0.959600
vn 0.000000 -0.345700 0.938300
vn -0.318700 -0.387000 0.865200
vn -0.270600 -0.077900 0.959500
vn 0.000000 -0.628600 0.777800
vn -0.700200 -0.440000 0.562300
vn -0.318700 -0.387000 0.865300
vn -0.700100 -0.440000 0.562300
vn -0.402500 -0.731700 0.550100
vn 0.000000 -0.628600 0.777700
vn 0.000000 -0.899200 0.437500
vn -0.867400 -0.375300 0.326600
vn -0.867500 -0.375300 0.326600
vn -0.663900 -0.671500 0.329200
vn -0.366700 -0.884200 0.289400
vn 0.000000 -0.977500 0.211000
vn 0.270500 -0.078000 0.959600
vn 0.318700 -0.387000 0.865200
vn 0.318700 -0.387100 0.865200
vn 0.402500 -0.731700 0.550100
vn 0.700100 -0.440000 0.562300
vn 0.700200 -0.440000 0.562300
vn 0.366700 -0.884200 0.289400
vn 0.663900 -0.671500 0.329200
vn 0.867400 -0.375300 0.326600
vn 0.867500 -0.375300 0.326600
vn -0.000000 0.494900 0.869000
vn 0.867500 0.317700 0.382900
vn -0.318700 -0.387100 0.865200
usemtl TankLights.001
s 1
f 1/1/1 6/2/2 9/3/3
f 6/2/4 7/4/5 30/5/6
f 6/2/7 30/5/8 9/3/3
f 9/3/3 30/5/8 10/6/9
f 7/4/5 8/7/10 31/8/11
f 7/4/5 31/8/11 30/5/12
f 30/5/12 31/8/13 32/9/14
f 30/5/12 32/9/14 10/6/9
f 10/6/9 32/9/14 11/10/15
f 8/7/10 2/11/16 18/12/17
f 8/7/18 18/12/17 31/8/11
f 31/8/11 18/12/17 19/13/19
f 31/8/13 19/13/19 32/9/20
f 32/9/14 19/13/21 20/14/22
f 32/9/14 20/14/22 11/10/23
f 11/10/23 20/14/22 3/15/24
f 1/16/1 9/3/3 12/17/25
f 9/3/3 10/6/9 33/18/26
f 9/3/3 33/18/27 12/17/25
f 12/17/28 33/18/27 13/19/29
f 10/6/9 11/10/15 34/20/30
f 10/6/9 34/20/30 33/18/27
f 33/18/31 34/20/30 35/21/32
f 33/18/31 35/21/33 13/19/29
f 13/19/29 35/21/32 14/22/34
f 11/10/23 3/15/24 21/23/35
f 11/10/15 21/23/35 34/20/30
f 34/20/36 21/23/35 22/24/37
f 34/20/36 22/24/38 35/21/32
f 35/21/33 22/24/38 23/25/39
f 35/21/33 23/25/39 14/22/40
f 14/22/34 23/25/41 4/26/42
f 1/27/43 12/28/44 15/29/45
f 12/28/25 13/30/29 36/31/46
f 12/28/47 36/31/46 15/29/45
f 15/29/45 36/31/46 16/32/48
f 13/30/29 14/33/34 37/34/49
f 13/30/29 37/34/49 36/31/50
f 36/31/46 37/34/51 38/35/52
f 36/31/46 38/35/52 16/32/53
f 16/32/53 38/35/52 17/36/54
f 14/33/34 4/37/42 24/38/55
f 14/33/40 24/38/56 37/34/49
f 37/34/49 24/38/55 25/39/57
f 37/34/51 25/39/57 38/35/52
f 38/35/52 25/39/57 26/40/58
f 38/35/52 26/40/58 17/36/54
f 17/36/54 26/40/58 5/41/59
f 1/42/43 15/29/45 6/2/60
f 15/29/45 16/32/48 39/43/61
f 15/29/45 39/43/61 6/2/7
f 6/2/2 39/43/62 7/4/5
f 16/32/53 17/36/54 40/44/63
f 16/32/53 40/44/63 39/43/61
f 39/43/61 40/44/63 41/45/64
f 39/43/61 41/45/65 7/4/5
f 7/4/5 41/45/65 8/7/10
f 17/36/54 5/41/59 27/46/66
f 17/36/54 27/46/66 40/44/63
f 40/44/63 27/46/66 28/47/67
f 40/44/63 28/47/67 41/45/64
f 41/45/65 28/47/67 29/48/68
f 41/45/65 29/48/69 8/7/18
f 8/7/10 29/48/68 2/11/16
f 42/1/43 44/3/3 43/2/47
f 43/2/44 46/5/26 45/4/29
f 43/2/47 44/3/3 46/5/27
f 44/3/3 47/6/70 46/5/31
f 45/4/29 49/8/33 48/7/34
f 45/4/29 46/5/31 49/8/33
f 46/5/31 50/9/30 49/8/32
f 46/5/31 47/6/70 50/9/30
f 47/6/9 51/10/15 50/9/30
f 48/7/34 53/12/41 52/11/42
f 48/7/40 49/8/33 53/12/39
f 49/8/33 54/13/37 53/12/41
f 49/8/32 50/9/30 54/13/38
f 50/9/36 55/14/35 54/13/37
f 50/9/30 51/10/15 55/14/35
f 51/10/23 56/15/24 55/14/35
f 42/16/43 57/17/7 44/3/3
f 44/3/3 58/18/12 47/6/9
f 44/3/3 57/17/2 58/18/6
f 57/17/2 59/19/5 58/18/6
f 47/6/9 60/20/14 51/10/15
f 47/6/70 58/18/12 60/20/14
f 58/18/12 61/21/13 60/20/14
f 58/18/12 59/19/5 61/21/11
f 59/19/5 62/22/10 61/21/11
f 51/10/15 63/23/22 56/15/24
f 51/10/15 60/20/14 63/23/22
f 60/20/14 64/24/21 63/23/22
f 60/20/20 61/21/13 64/24/21
f 61/21/11 65/25/17 64/24/19
f 61/21/11 62/22/18 65/25/71
f 62/22/10 66/26/16 65/25/17
f 42/27/43 67/29/45 57/28/2
f 57/28/2 68/31/61 59/30/5
f 57/28/7 67/29/45 68/31/61
f 67/29/45 69/32/48 68/31/61
f 59/30/5 70/34/64 62/33/10
f 59/30/5 68/31/61 70/34/65
f 68/31/61 71/35/63 70/34/65
f 68/31/61 69/32/53 71/35/63
f 69/32/53 72/36/54 71/35/63
f 62/33/10 73/38/68 66/37/16
f 62/33/18 70/34/65 73/38/69
f 70/34/65 74/39/67 73/38/68
f 70/34/64 71/35/63 74/39/67
f 71/35/63 75/40/66 74/39/67
f 71/35/63 72/36/54 75/40/66
f 72/36/54 76/41/59 75/40/66
f 42/42/43 43/2/25 67/29/45
f 67/29/45 77/43/46 69/32/48
f 67/29/45 43/2/47 77/43/46
f 43/2/25 45/4/29 77/43/72
f 69/32/53 78/44/52 72/36/54
f 69/32/53 77/43/46 78/44/52
f 77/43/46 79/45/49 78/44/52
f 77/43/46 45/4/29 79/45/49
f 45/4/29 48/7/34 79/45/51
f 72/36/54 80/46/58 76/41/59
f 72/36/54 78/44/52 80/46/58
f 78/44/52 81/47/57 80/46/58
f 78/44/52 79/45/51 81/47/57
f 79/45/49 82/48/56 81/47/57
f 79/45/51 48/7/40 82/48/56
f 48/7/34 52/11/42 82/48/55
