# Blender v2.76 (sub 0) OBJ File: ''
# www.blender.org
mtllib rocks2.mtl
o Rocks02_Untitled.004
v 1.090789 -0.000000 0.204541
v 0.048694 0.000000 -0.708743
v -1.952297 -0.000000 -0.007699
v -1.743170 -0.000000 1.281312
v 0.130945 -0.000000 1.786356
v 0.043485 1.120666 -0.726356
v -1.787572 1.085711 0.170756
v -1.748308 1.085711 1.309502
v 0.119440 1.095798 1.768613
v 0.553141 2.535121 0.512518
v 0.290074 1.776459 1.365017
v -0.118499 3.170874 0.597505
v -0.338206 3.170873 0.893174
v -0.480527 3.470566 0.630034
v -0.696396 3.332188 0.928156
v -0.752488 3.368658 0.630034
v -1.085114 2.923745 1.117134
v -1.269147 2.751521 0.658224
v -1.265707 2.225153 1.255559
v -1.281945 -0.000000 2.147260
v -0.706019 0.488891 2.419003
v -0.996311 0.530095 2.107298
v -0.431226 0.960883 1.526927
v -1.158169 1.008288 0.963174
v -1.515552 -0.000000 1.148191
v -0.382049 -0.000000 2.790582
v 0.053527 -0.000000 1.611598
v 1.547531 0.000000 -2.086408
v 0.625249 0.000000 -2.519776
v 0.717930 0.551036 -2.352719
v 1.324775 0.587280 -1.928121
v -0.087678 0.000000 -2.344329
v 0.038048 0.551036 -2.076339
v 0.111463 0.000000 -0.642857
v 0.012760 0.574906 -1.562226
v 0.674035 0.000000 -0.210319
v 0.752383 0.580643 -0.721775
v 0.597078 0.751312 -2.095358
v 0.982407 1.037367 -1.713086
v 0.292984 0.716599 -1.988836
v 0.368757 1.037367 -1.359819
v 0.617738 1.037367 -1.097041
v 1.249461 0.000000 -0.431267
v 1.679187 0.000000 -1.313547
v 1.332540 0.628233 -1.319021
v 1.200345 0.580644 -0.869977
v 0.862739 0.000000 -0.633558
v 1.614948 0.000000 -1.571025
v 1.099219 0.748884 -1.670511
v 0.657282 0.860774 -1.109076
v 1.677655 0.000000 -1.591684
v 1.437974 0.580644 -1.665411
v 1.763374 0.000000 -1.054235
v 1.389498 0.586123 -1.051927
v -0.240342 0.000000 -1.357175
v 0.314753 0.580643 -1.012477
v 0.275262 0.962414 -1.586789
v -0.417144 3.269766 0.354635
v -0.563604 2.796633 -0.052277
v 0.988901 1.238868 0.053054
v -0.563604 2.145723 -0.747164
v -1.716794 0.000000 -0.870364
v -0.732181 0.701910 -1.060892
v -0.589028 1.508281 -0.606346
v -1.275295 1.423618 -0.706023
v 0.902926 -0.000000 1.383177
v 0.851982 1.162289 1.229453
v -1.515552 -0.000000 1.797596
v -1.195368 0.638848 1.738148
v -0.565720 0.357269 2.574438
v -0.273442 0.824232 1.611598
v 1.315158 0.281827 1.250816
v 1.076858 0.304741 1.713705
v 1.502025 0.381873 1.531505
v -0.123264 -0.000000 1.807651
v -0.123909 1.085711 1.809688
v 0.240609 1.956304 1.282089
v 0.063815 1.909082 1.375190
v -0.548778 3.123242 1.025983
v 1.098084 -0.006297 1.033640
v 0.756351 -0.016790 1.747019
v 1.561146 -0.012904 1.897153
v 1.737874 -0.014189 1.302828
v 1.351546 0.301080 1.720003
v 1.291826 -0.013635 2.014072
v 1.023381 0.305784 1.466421
v 0.704098 -0.014737 1.474903
v 0.093733 -0.000000 2.251470
v -0.161587 0.590750 2.143398
v -0.857355 0.000000 -1.167678
v -1.616614 0.565153 -0.726169
v -1.154470 1.337800 -0.880921
v -2.539565 0.244857 -0.707998
v -2.316115 0.260592 -0.625204
v -2.199451 0.259907 -0.743549
v -2.294803 0.257503 -0.896775
v -2.452528 0.310571 -0.911666
v -2.580832 0.055606 -0.510576
v -2.196598 0.050063 -0.452786
v -2.065847 0.048714 -0.579391
v -2.111708 0.050787 -0.969740
v -2.272845 0.051267 -1.075691
v -2.663044 0.050423 -0.959021
v -0.718004 0.216687 -1.510127
v -0.524563 0.244382 -1.347068
v -0.363616 0.305874 -1.440751
v -0.422328 0.321256 -1.610757
v -0.595397 0.289874 -1.653664
v -0.969558 -0.021575 -1.550892
v -0.778988 -0.030730 -1.212281
v -0.598757 -0.032957 -1.186954
v -0.319027 -0.029534 -1.463046
v -0.334488 -0.028742 -1.655275
v -0.666343 -0.030135 -1.891366
vt 0.950000 0.000000
vt 0.950000 1.000000
vt 0.750000 1.000000
vt 1.017674 0.000000
vt 1.012897 1.000000
vt 0.350000 0.000000
vt 0.350000 1.000000
vt 0.150000 1.000000
vt 0.534975 0.000000
vt 0.534946 1.000000
vt 0.650000 0.000000
vt 0.650000 1.000000
vt 0.563172 1.000000
vt 0.564092 1.000000
vt 0.604607 1.000000
vt 0.616211 1.000000
vt 0.550000 1.000000
vt 1.113355 1.000000
vt 0.785433 0.269827
vt 0.632124 0.979064
vt 0.746885 0.269827
vt 0.550000 0.798153
vt 0.513587 1.000000
vt 0.391219 0.000000
vt 0.400956 1.000000
vt 0.523884 1.000000
vt 0.550000 0.899076
vt 0.769207 0.000000
vt 1.150000 0.000000
vt 1.150000 1.000000
vt 0.326033 0.000000
vt 0.311244 1.000000
vt 0.373922 0.000000
vt 0.550000 0.000000
vt 0.735431 0.000000
vt 0.729369 1.000000
vt 0.777198 1.000000
vt 0.303266 1.000000
vt 0.384321 1.000000
vt 0.755476 1.000000
vt 0.406858 1.000000
vt 0.720843 0.000000
vt 0.678007 1.000000
vt 0.750000 0.000000
vt 0.663972 0.284929
vt 0.500000 1.000000
vt 0.737764 0.827254
vt 0.850000 0.500000
vt 0.975528 0.654509
vt 0.206107 0.095491
vt 1.078493 1.000000
vt 1.050000 1.000000
vt 0.574045 1.000000
vt 0.726893 1.000000
vt 0.654675 1.000000
vt 0.566796 1.011451
vt 0.563708 0.000000
vt 0.569899 0.899410
vt 0.781909 0.342452
vt 0.856490 0.238853
vt 0.696185 1.000000
vt 0.722159 1.000000
vt 1.081710 0.000000
vt 0.150000 0.000000
vt 1.086736 0.892382
vt 1.101910 1.000000
vn 0.541100 -0.003100 -0.840900
vn 0.431300 0.183100 -0.883400
vn 0.596900 0.196700 -0.777800
vn 0.543400 -0.003800 -0.839500
vn 0.451200 0.055100 -0.890700
vn 0.341500 0.208800 -0.916400
vn -0.993800 0.057000 0.095500
vn -0.992000 0.118300 0.045000
vn -0.937100 0.292500 -0.190300
vn -0.089100 0.000000 0.996000
vn -0.038200 0.186900 0.981600
vn -0.248800 0.116200 0.961600
vn 0.812500 0.079300 0.577500
vn 0.864200 0.267800 0.426000
vn 0.352000 0.227100 0.908000
vn 0.341300 0.221700 0.913400
vn 0.829900 0.220400 0.512600
vn 0.582100 0.423800 0.694000
vn 0.744900 0.452100 0.490600
vn 0.591100 0.669500 0.449800
vn 0.493700 0.612500 0.617300
vn 0.493800 0.580200 0.647800
vn 0.683900 0.540000 0.490600
vn 0.480600 0.696300 0.533100
vn -0.569400 0.796200 0.204500
vn -0.345300 0.921500 0.177700
vn -0.588900 0.797200 -0.132700
vn -0.831400 0.527900 0.173400
vn -0.458400 0.841800 -0.284900
vn -0.854900 0.488100 -0.175800
vn -0.930300 0.327600 0.164700
vn -0.907300 0.412900 -0.080000
vn -0.927500 0.304000 -0.217600
vn -0.112100 0.251300 0.961400
vn -0.366600 -0.026500 0.930000
vn -0.002200 0.224400 0.974500
vn -0.078800 0.264800 0.961100
vn 0.118400 0.403100 0.907400
vn 0.203900 0.423000 0.882900
vn 0.266100 0.585100 0.766000
vn 0.000000 0.278800 0.960400
vn 0.185600 0.434300 0.881500
vn -0.578100 0.219000 0.786100
vn -0.608300 0.310600 0.730400
vn -0.700300 0.395700 0.594200
vn -0.273000 0.880400 0.387700
vn -0.106200 0.892400 0.438500
vn -0.259000 0.878200 0.402100
vn -0.868200 0.417000 0.269200
vn -0.928100 0.351500 0.123000
vn -0.913800 0.401400 0.061300
vn 0.925600 0.376000 -0.043200
vn 0.920200 0.387100 -0.057800
vn 0.924200 0.379000 -0.047200
vn 0.474400 0.317400 -0.821100
vn 0.416800 0.198800 -0.887000
vn 0.401000 0.450300 -0.797800
vn -0.293000 0.390200 -0.872900
vn -0.211400 0.466100 -0.859100
vn -0.277100 0.528100 -0.802700
vn -0.937100 0.331700 -0.108600
vn -0.821800 0.556600 -0.121900
vn -0.866700 0.470500 -0.165600
vn -0.609600 0.572000 0.548900
vn -0.480500 0.615300 0.624900
vn -0.493500 0.561000 0.664600
vn 0.748900 0.378200 0.544100
vn 0.714600 0.484400 0.504700
vn 0.720700 0.468100 0.511400
vn 0.403900 0.457800 -0.792000
vn 0.406600 0.647500 -0.644600
vn 0.304900 0.733500 -0.607400
vn -0.294500 0.513100 -0.806200
vn -0.268200 0.545000 -0.794400
vn -0.215500 0.833500 -0.508800
vn -0.865200 0.466800 -0.183000
vn -0.786500 0.510800 -0.347000
vn -0.663800 0.721700 -0.196300
vn -0.644000 0.523800 0.557600
vn -0.437900 0.541600 0.717600
vn -0.568900 0.498500 0.654100
vn 0.713100 0.501000 0.490500
vn 0.636000 0.673700 0.376500
vn 0.651300 0.612600 0.447700
vn -0.181300 0.908000 -0.377700
vn -0.077200 0.988000 -0.134100
vn -0.124600 0.943800 -0.306100
vn 0.666700 0.460500 0.586000
vn 0.629600 0.399000 0.666600
vn 0.657300 0.444100 0.608900
vn 0.817100 0.500000 -0.286900
vn 0.867600 0.475200 -0.146500
vn 0.840700 0.479100 -0.252300
vn 0.316800 0.937700 0.142500
vn 0.348900 0.933000 0.088700
vn 0.363500 0.919300 0.150800
vn -0.221800 0.475600 0.851300
vn -0.155900 0.448900 0.879900
vn -0.311600 0.508100 0.802900
vn 0.805500 0.505200 -0.309600
vn 0.907900 0.344500 -0.238800
vn 0.890600 0.364800 -0.271400
vn 0.693800 0.662600 -0.282200
vn 0.822000 0.492700 -0.285700
vn 0.806500 0.517500 -0.286000
vn 0.814600 0.505900 -0.283600
vn 0.860700 0.476100 -0.180200
vn 0.860200 0.489300 -0.143600
vn -0.769600 0.499900 0.397300
vn -0.612500 0.582300 0.534500
vn -0.652100 0.526500 0.545500
vn -0.789900 0.487700 0.371800
vn -0.622600 0.485100 0.614100
vn -0.732200 0.507300 0.454400
vn -0.648900 0.744100 -0.158800
vn -0.342000 0.671400 -0.657500
vn -0.635100 0.502900 -0.586200
vn 0.467600 0.603800 -0.645600
vn 0.500600 0.567900 -0.653400
vn 0.565300 0.496500 -0.658700
vn 0.445700 0.676700 -0.586000
vn -0.278900 0.744300 -0.606900
vn 0.052100 0.812600 -0.580500
vn 0.550700 0.513400 -0.658100
vn 0.620300 0.100000 -0.778000
vn 0.487700 0.447000 -0.749900
vn -0.656100 0.495100 -0.569600
vn -0.959600 0.230300 -0.161500
vn -0.840900 0.504200 -0.196500
vn -0.983700 0.144600 -0.107200
vn -0.941100 0.271500 -0.201600
vn -0.906200 0.264400 -0.329900
vn 0.347500 0.197500 -0.916600
vn 0.285400 0.431700 -0.855700
vn 0.306700 0.344100 -0.887400
vn -0.041900 0.885200 -0.463300
vn -0.679200 0.414700 -0.605600
vn -0.710900 0.297600 -0.637200
vn -0.906800 0.260000 -0.331800
vn 0.469500 0.182700 -0.863800
vn -0.405600 -0.005800 -0.914000
vn 0.308700 0.262400 -0.914200
vn -0.336100 0.130600 -0.932700
vn 0.166700 -0.219000 -0.961400
vn -0.778800 0.517000 -0.355300
vn 0.987000 0.080100 0.139200
vn 0.946100 0.236800 0.221100
vn 0.830800 0.220000 0.511200
vn 0.952100 0.230300 0.201300
vn 0.549600 0.459900 0.697500
vn 0.800900 0.489500 0.345000
vn -0.866800 0.419100 0.270000
vn -0.865100 0.414000 0.283300
vn -0.697400 0.368700 0.614600
vn 0.047800 0.902600 0.427900
vn 0.291900 0.817800 0.496000
vn -0.006800 0.864900 0.501800
vn 0.036400 0.998900 -0.028600
vn -0.152900 0.988100 -0.016300
vn -0.141700 0.989500 -0.029600
vn 0.582100 0.423800 0.693900
vn 0.621400 0.453000 0.639200
vn 0.144700 0.387500 0.910400
vn 0.304500 0.037600 0.951800
vn 0.382400 0.234400 0.893800
vn -0.016900 0.179400 0.983600
vn 0.197600 0.387300 0.900500
vn -0.132100 0.157100 0.978700
vn 0.288700 0.230300 0.929300
vn 0.508800 0.579900 0.636300
vn 0.225100 0.441400 0.868600
vn 0.104700 0.378300 0.919700
vn 0.483400 0.578100 0.657400
vn -0.514900 0.650700 -0.558100
vn -0.372500 0.721000 -0.584200
vn -0.500600 0.658800 -0.561500
vn -0.591300 0.640200 0.490300
vn -0.717200 0.693200 -0.071300
vn -0.629000 0.663200 0.405700
vn 0.744800 0.510100 0.430300
vn 0.437700 0.645400 0.626000
vn 0.770300 0.491600 0.406200
vn 0.438300 0.493900 -0.751000
vn 0.516800 0.637600 -0.571300
vn 0.453100 0.519800 -0.724300
vn 0.097500 0.669500 0.736300
vn -0.007600 0.683500 0.729900
vn 0.206500 0.646800 0.734200
vn -0.606300 0.648200 0.460700
vn -0.699700 0.700700 0.139600
vn -0.627600 0.662700 0.408700
vn 0.585600 0.515000 0.626000
vn 0.589500 0.617900 0.520300
vn 0.581800 0.481200 0.655700
vn -0.354000 0.145200 -0.923900
vn -0.352500 0.172000 -0.919900
vn -0.357500 0.026800 -0.933500
vn -0.352800 0.233800 -0.906000
vn -0.313200 0.286500 -0.905400
vn -0.344100 0.183400 -0.920800
vn -0.043800 0.998900 -0.014800
vn 0.070100 0.988100 0.136900
vn 0.052800 0.989500 0.134700
vn -0.184900 0.650700 0.736500
vn -0.284800 0.721000 0.631700
vn -0.195600 0.658800 0.726400
vn 0.734100 0.640200 0.226200
vn 0.333100 0.693200 0.639100
vn 0.683900 0.663200 0.304000
vn -0.047900 0.510100 -0.858800
vn 0.284100 0.645400 -0.709100
vn -0.082000 0.491600 -0.867000
vn -0.868400 0.493900 0.044600
vn -0.761000 0.637600 -0.119500
vn -0.854100 0.519800 0.017600
vn 0.562700 0.669500 -0.484900
vn 0.614900 0.683500 -0.393400
vn 0.501200 0.646800 -0.574800
vn 0.717600 0.648200 0.255000
vn 0.500000 0.700700 0.508900
vn 0.685600 0.662700 0.301300
vn -0.407400 0.864500 0.294300
vn -0.234400 0.953900 0.187200
vn -0.260800 0.944400 0.200400
vn -0.468500 0.806700 0.360200
vn -0.665400 0.635500 0.391700
vn -0.604000 0.669400 0.432400
vn 0.601500 0.116700 0.790300
vn 0.684100 0.218700 0.695800
vn 0.621200 0.139600 0.771200
vn 0.371900 0.309000 -0.875300
vn 0.207000 0.174400 -0.962700
vn 0.435800 0.361000 -0.824500
vn -0.664100 0.583300 -0.467600
vn -0.772800 0.479900 -0.415400
vn -0.638400 0.603800 -0.477400
vn 0.954700 0.182000 -0.235500
vn 0.939100 0.145500 -0.311200
vn 0.964000 0.222600 -0.145600
vn -0.112600 0.519200 0.847200
vn 0.658600 -0.037700 -0.751500
vn 0.429900 0.134400 -0.892800
vn -0.978900 0.199500 -0.043400
vn -0.308900 -0.026100 0.950700
vn 0.253500 -0.016000 0.967200
vn 0.613200 0.424500 0.666200
vn 0.116900 0.550500 0.826600
vn -0.902800 0.396400 0.166500
vn -0.967100 0.141200 0.211700
vn -0.961200 0.274600 0.025400
vn 0.373800 0.521500 0.767000
vn 0.103900 0.198300 0.974600
vn -0.710800 0.472000 0.521600
vn -0.571000 0.189700 0.798700
vn -0.257400 0.877000 0.405700
vn 0.002600 0.894700 0.446600
vn -0.849900 0.482500 0.211600
vn 0.929000 0.368500 -0.033600
vn 0.433600 0.591500 -0.679800
vn -0.361200 0.450300 -0.816600
vn -0.946600 0.287200 -0.146400
vn -0.633600 0.514700 0.577600
vn 0.304800 0.589300 -0.748200
vn -0.254400 0.808400 -0.530800
vn -0.713000 0.701000 -0.017000
vn -0.782500 0.495800 0.376700
vn 0.722700 0.421800 0.547500
vn -0.278100 0.707200 -0.650000
vn -0.341700 0.637900 -0.690200
vn 0.000000 1.000000 0.000000
vn 0.677000 0.479300 0.558500
vn 0.791500 0.498000 -0.354400
vn 0.303600 0.934000 0.188400
vn 0.100400 0.985900 0.134000
vn -0.392100 0.533200 0.749600
vn 0.749400 0.560900 -0.352000
vn 0.812700 0.519500 -0.263900
vn -0.786300 0.469300 0.401800
vn -0.814100 0.561000 0.150100
vn -0.901300 0.416000 -0.120600
vn 0.557800 0.522200 -0.645100
vn 0.777500 0.401700 -0.483900
vn 0.439200 0.658900 -0.610800
vn -0.522100 0.629700 -0.575200
vn -0.938400 0.231700 -0.256200
vn 0.377500 0.202100 -0.903700
vn -0.950400 0.286400 -0.121100
vn 0.758500 0.282000 -0.587500
vn -0.905700 0.195200 0.376300
vn 0.810300 0.072400 0.581600
vn 0.228700 0.427100 0.874800
vn 0.777300 0.219200 0.589800
vn -0.666100 0.355900 0.655400
vn 0.142900 0.845300 0.514800
vn 0.134800 0.812800 0.566700
vn -0.472600 0.881300 0.000500
vn 0.013300 0.999900 0.001300
vn -0.135000 -0.012800 0.990800
vn 0.658700 0.402400 0.635700
vn 0.581300 0.453800 0.675300
vn -0.607300 0.590900 -0.531000
vn -0.394900 0.475200 0.786300
vn 0.888100 0.376800 0.263300
vn 0.364200 0.369900 -0.854700
vn 0.312200 0.616300 0.723000
vn 0.564300 0.378100 0.733900
vn -0.379100 0.109700 -0.918800
vn 0.259200 0.881300 0.395100
vn -0.006200 0.999900 -0.011900
vn -0.111600 0.590900 0.799000
vn 0.874200 0.475200 -0.100200
vn -0.266100 0.376800 -0.887200
vn -0.914600 0.369900 0.163400
vn 0.433900 0.616300 -0.657200
vn -0.525300 0.769000 0.364400
vn -0.260400 0.949400 0.175800
vn -0.298200 0.896900 0.326700
vn 0.500500 0.009000 0.865700
vn 0.521900 0.431100 -0.736100
vn -0.548800 0.665900 -0.505500
vn 0.964700 0.251900 -0.076600
usemtl YellowDark.001
s 1
f 2/1/1 6/2/2 60/3/3
f 2/1/4 90/4/5 63/5/6
f 4/6/7 8/7/8 7/8/9
f 75/9/10 76/10/11 8/7/12
f 66/11/13 67/12/14 9/13/15
f 9/13/16 67/12/17 11/14/18
f 10/3/19 12/3/20 13/15/21
f 13/15/22 12/3/23 14/3/24
f 15/16/25 14/3/26 16/3/27
f 17/17/28 16/3/29 18/3/30
f 19/3/31 18/17/32 7/8/33
f 19/3/34 8/7/35 76/10/36
f 19/3/37 78/18/38 79/19/39
f 15/20/40 17/17/41 79/21/42
f 70/22/43 21/23/44 20/24/45
f 22/25/46 23/26/47 69/7/48
f 69/7/49 24/7/50 25/6/51
f 89/27/52 88/17/53 27/17/54
f 28/28/55 29/1/56 30/2/57
f 29/1/58 32/29/59 33/30/60
f 55/31/61 35/32/62 33/8/63
f 34/33/64 36/34/65 37/17/66
f 51/35/67 52/36/68 37/17/69
f 31/37/70 30/2/71 38/2/72
f 30/2/73 33/30/74 40/30/75
f 35/32/76 57/38/77 40/8/78
f 56/39/79 37/17/80 42/17/81
f 52/36/82 39/40/83 42/17/84
f 57/38/85 41/41/86 39/40/87
f 53/42/88 54/43/89 46/17/90
f 45/3/91 44/44/92 48/44/93
f 45/3/94 49/3/95 50/17/96
f 46/17/97 50/17/98 47/45/99
f 52/36/100 51/35/101 28/28/102
f 39/40/103 52/36/104 31/37/105
f 44/44/106 45/3/107 54/43/108
f 55/31/109 34/33/110 56/39/111
f 35/32/112 56/39/113 41/41/114
f 16/46/115 58/47/116 59/48/117
f 12/49/118 10/29/119 59/48/120
f 58/17/121 16/46/122 14/50/123
f 10/29/124 60/29/125 61/48/126
f 61/3/127 7/2/128 18/3/129
f 3/29/130 7/30/131 91/51/132
f 63/5/133 92/52/134 64/2/135
f 92/52/136 65/52/136 64/2/136
f 65/18/137 92/17/138 91/45/139
f 6/3/140 64/17/141 61/3/142
f 61/3/143 64/17/144 65/52/145
f 1/44/146 60/3/147 67/12/148
f 60/3/149 77/53/150 67/12/151
f 69/7/152 68/6/153 20/24/154
f 89/27/155 71/17/156 21/23/157
f 86/54/158 84/55/159 72/12/160
f 11/14/161 77/53/162 78/56/163
f 5/57/164 9/13/165 76/10/166
f 78/18/167 76/10/168 9/58/169
f 13/59/170 79/19/171 78/18/172
f 15/20/40 79/21/42 13/60/173
f 86/54/174 72/12/175 80/12/176
f 73/3/177 86/54/178 81/3/179
f 74/17/180 84/55/181 82/61/182
f 72/12/183 74/17/184 83/17/185
f 84/55/186 73/3/187 85/3/188
f 86/54/189 87/62/190 81/3/191
f 70/22/192 26/17/193 88/17/194
f 63/5/195 91/51/196 92/52/197
f 90/4/198 62/63/199 91/51/200
f 94/54/201 96/55/202 93/12/203
f 94/54/204 93/12/205 98/12/206
f 95/3/207 94/54/208 100/3/209
f 97/17/210 96/55/211 102/61/212
f 93/12/213 97/17/214 103/17/215
f 96/55/216 95/3/217 101/3/218
f 94/54/219 99/62/220 100/3/221
f 105/54/222 107/55/223 108/17/224
f 104/12/225 109/12/226 110/62/227
f 105/54/228 111/3/229 112/3/230
f 108/17/231 107/55/232 113/61/233
f 104/12/234 108/17/235 114/17/236
f 107/55/237 106/3/238 112/3/239
f 105/54/240 110/62/240 111/3/240
f 1/44/241 2/1/1 60/3/3
f 6/2/242 2/1/4 63/5/6
f 3/64/243 4/6/7 7/8/9
f 4/6/244 75/9/10 8/7/12
f 5/57/245 66/11/13 9/13/15
f 77/53/246 10/3/19 13/15/21
f 15/16/247 13/15/22 14/3/24
f 17/17/248 15/16/25 16/3/27
f 19/17/249 17/17/28 18/3/30
f 8/7/250 19/3/31 7/8/33
f 78/18/251 19/3/34 76/10/36
f 17/3/252 19/3/37 79/19/39
f 22/25/253 20/24/45 21/23/44
f 26/34/254 70/22/43 20/24/45
f 24/7/255 69/7/48 23/26/47
f 22/25/46 21/23/256 23/26/47
f 68/6/257 69/7/49 25/6/51
f 71/17/258 89/27/52 27/17/54
f 31/37/259 28/28/55 30/2/57
f 30/2/260 29/1/58 33/30/60
f 32/64/261 55/31/61 33/8/63
f 56/39/262 34/33/64 37/17/66
f 36/34/67 51/35/67 37/17/69
f 39/40/263 31/37/70 38/2/72
f 38/2/264 30/2/73 40/30/75
f 33/8/265 35/32/76 40/8/78
f 41/41/266 56/39/79 42/17/81
f 37/17/267 52/36/82 42/17/84
f 39/40/87 38/2/268 57/38/85
f 40/30/269 57/38/85 38/2/268
f 41/41/86 42/17/270 39/40/87
f 43/34/271 53/42/88 46/17/90
f 49/3/272 45/3/91 48/44/93
f 50/17/96 46/17/273 45/3/94
f 54/43/274 45/3/94 46/17/273
f 43/34/275 46/17/97 47/45/99
f 31/37/276 52/36/100 28/28/102
f 53/42/277 44/44/106 54/43/108
f 35/32/278 55/31/109 56/39/111
f 57/38/279 35/32/112 41/41/114
f 18/14/280 16/46/115 59/48/117
f 58/47/281 12/49/118 59/48/120
f 12/49/282 58/17/121 14/50/123
f 59/48/283 10/29/124 61/48/126
f 59/17/284 61/3/127 18/3/129
f 62/63/285 3/29/130 91/51/132
f 6/2/286 63/5/133 64/2/135
f 7/2/287 65/18/137 91/45/139
f 60/44/288 6/3/140 61/3/142
f 7/2/289 61/3/143 65/52/145
f 66/11/290 1/44/146 67/12/148
f 11/14/291 67/12/151 77/53/150
f 60/3/149 10/3/292 77/53/150
f 22/25/293 69/7/152 20/24/154
f 23/26/294 21/23/157 71/17/156
f 70/22/295 89/27/155 21/23/157
f 74/17/296 72/12/160 84/55/159
f 86/54/158 73/3/297 84/55/159
f 75/9/298 5/57/164 76/10/166
f 11/65/299 78/18/167 9/58/169
f 77/66/300 13/59/170 78/18/172
f 87/62/301 86/54/174 80/12/176
f 85/3/302 73/3/177 81/3/179
f 83/17/303 74/17/180 82/61/182
f 80/12/304 72/12/183 83/17/185
f 82/61/305 84/55/186 85/3/188
f 89/27/306 70/22/192 88/17/194
f 63/5/307 90/4/198 91/51/200
f 97/17/308 93/12/203 96/55/202
f 94/54/201 95/3/309 96/55/202
f 99/62/310 94/54/204 98/12/206
f 101/3/311 95/3/207 100/3/209
f 103/17/312 97/17/210 102/61/212
f 98/12/313 93/12/213 103/17/215
f 102/61/314 96/55/216 101/3/218
f 108/17/224 104/12/315 105/54/222
f 105/54/222 106/3/316 107/55/223
f 105/54/317 104/12/225 110/62/227
f 106/3/318 105/54/228 112/3/230
f 114/17/319 108/17/231 113/61/233
f 109/12/320 104/12/234 114/17/236
f 113/61/321 107/55/237 112/3/239
