# Blender v2.76 (sub 0) OBJ File: ''
# www.blender.org
o Shell_Untitled
v 0.066139 0.130033 0.066922
v 0.028258 0.221485 0.066922
v 0.028258 0.221485 0.272673
v -0.063194 0.259366 0.066922
v -0.063194 0.259366 0.272673
v -0.154647 0.221485 0.066922
v -0.154647 0.221485 0.272673
v -0.192528 0.130033 0.066922
v -0.192528 0.130033 0.272673
v -0.154647 0.038580 0.066922
v -0.154647 0.038580 0.272673
v -0.063194 0.000699 0.066922
v -0.063194 0.000699 0.272673
v 0.028258 0.038580 0.066922
v 0.028258 0.038580 0.272673
v 0.066139 0.130033 0.272673
v -0.212548 0.130033 0.002292
v -0.063194 0.279387 0.002292
v 0.086160 0.130033 0.002292
v 0.086160 0.130033 0.054804
v 0.042415 0.024423 0.054804
v -0.063194 -0.019321 0.054804
v -0.168804 0.024423 0.054804
v -0.212548 0.130033 0.054804
v -0.168804 0.235642 0.054804
v -0.063194 0.279387 0.054804
v 0.042415 0.235642 0.054804
v 0.042415 0.024423 0.002292
v -0.063194 -0.019321 0.002292
v -0.168804 0.024423 0.002292
v -0.168804 0.235642 0.002292
v 0.042415 0.235642 0.002292
v 0.028258 0.221485 0.275366
v 0.066139 0.130033 0.275366
v -0.063194 0.259366 0.275366
v -0.154647 0.221485 0.275366
v -0.192528 0.130033 0.275366
v -0.154647 0.038580 0.275366
v -0.063194 0.000699 0.275366
v 0.028258 0.038580 0.275366
v 0.018041 0.211268 0.287484
v -0.063194 0.244916 0.287484
v -0.144430 0.211268 0.287484
v -0.178078 0.130033 0.287484
v -0.144430 0.048798 0.287484
v -0.063194 0.015149 0.287484
v 0.018041 0.048798 0.287484
v 0.051689 0.130033 0.287484
v 0.027472 0.220699 0.296909
v -0.063194 0.258254 0.296909
v -0.153861 0.220699 0.296909
v -0.191416 0.130033 0.296909
v -0.153861 0.039366 0.296909
v -0.063194 0.001811 0.296909
v 0.027472 0.039366 0.296909
v 0.065027 0.130033 0.296909
v 0.024915 0.218142 0.350768
v -0.063194 0.254638 0.350768
v -0.151304 0.218142 0.350768
v -0.187800 0.130033 0.350768
v -0.151304 0.041923 0.350768
v -0.063194 0.005427 0.350768
v 0.024915 0.041923 0.350768
v 0.061411 0.130033 0.350768
v 0.005530 0.198757 0.443674
v -0.063194 0.227224 0.443674
v -0.131919 0.198757 0.443674
v -0.160386 0.130033 0.443674
v -0.131919 0.061308 0.443674
v -0.063194 0.032841 0.443674
v 0.005530 0.061308 0.443674
v 0.033997 0.130033 0.443674
v -0.063194 0.130033 0.527553
vt 0.750000 0.000000
vt 0.875000 0.000000
vt 0.875000 1.000000
vt 1.000000 0.000000
vt 1.000000 1.000000
vt 0.125000 0.000000
vt 0.125000 1.000000
vt 0.000000 1.000000
vt 0.250000 0.000000
vt 0.250000 1.000000
vt 0.375000 0.000000
vt 0.375000 1.000000
vt 0.500000 0.000000
vt 0.500000 1.000000
vt 0.625000 0.000000
vt 0.625000 1.000000
vt 0.750000 1.000000
vt 0.000000 0.500000
vt 0.146447 0.853553
vt 0.853553 0.853553
vt 1.000000 0.500000
vt 0.853553 0.146447
vt 0.146447 0.146447
vt 0.500000 0.500000
vt 0.000000 0.000000
vn 1.000000 0.000000 0.000000
vn 0.707100 0.707100 0.000000
vn 0.000000 1.000000 0.000000
vn -0.707100 0.707100 0.000000
vn -1.000000 0.000000 0.000000
vn -0.707100 -0.707100 -0.000000
vn 0.000000 -1.000000 -0.000000
vn 0.707100 -0.707100 -0.000000
vn -0.000000 0.000000 -1.000000
vn 0.366100 0.366100 0.855500
vn 0.517800 0.000000 0.855500
vn 0.366100 -0.366100 0.855500
vn 0.000000 -0.517800 0.855500
vn -0.366100 -0.366100 0.855500
vn -0.517800 0.000000 0.855500
vn -0.366100 0.366100 0.855500
vn 0.000000 0.517800 0.855500
vn 0.651800 0.651800 0.387600
vn 0.921800 0.000000 0.387600
vn 0.000000 0.921800 0.387700
vn -0.651800 0.651800 0.387600
vn -0.921800 -0.000000 0.387600
vn -0.651800 -0.651800 0.387600
vn 0.000000 -0.921800 0.387600
vn 0.651800 -0.651800 0.387600
vn 0.454400 0.454400 0.766200
vn 0.000000 0.642600 0.766200
vn -0.454400 0.454400 0.766200
vn -0.642600 -0.000000 0.766200
vn -0.454400 -0.454400 0.766200
vn 0.000000 -0.642600 0.766200
vn 0.454400 -0.454400 0.766200
vn 0.642600 -0.000000 0.766200
vn 0.577100 0.000000 -0.816700
vn 0.408100 0.408100 -0.816700
vn 0.000000 0.577100 -0.816700
vn -0.408100 0.408100 -0.816700
vn -0.577100 0.000000 -0.816700
vn -0.408100 -0.408100 -0.816700
vn 0.000000 -0.577100 -0.816700
vn 0.408100 -0.408100 -0.816700
vn 0.997800 0.000000 0.067000
vn 0.705500 0.705500 0.067000
vn 0.696600 0.696600 0.171600
vn 0.000000 0.997800 0.067000
vn 0.000000 0.985200 0.171600
vn -0.705500 0.705500 0.067000
vn -0.696600 0.696600 0.171600
vn -0.997800 0.000000 0.067000
vn -0.985200 0.000000 0.171600
vn -0.705500 -0.705500 0.067000
vn -0.696600 -0.696600 0.171600
vn 0.000000 -0.997800 0.067000
vn 0.000000 -0.985200 0.171600
vn 0.705500 -0.705500 0.067000
vn 0.696600 -0.696600 0.171600
vn 0.985200 0.000000 0.171600
vn 0.607100 0.607100 0.512700
vn 0.000000 0.858600 0.512700
vn -0.607100 0.607100 0.512700
vn -0.858600 0.000000 0.512700
vn -0.607100 -0.607100 0.512700
vn 0.000000 -0.858600 0.512700
vn 0.607100 -0.607100 0.512700
vn 0.858600 0.000000 0.512700
vn 0.000000 0.000000 1.000000
usemtl Gold
s 1
f 1/1/1 2/2/2 3/3/2
f 4/4/3 5/5/3 3/3/2
f 6/6/4 7/7/4 5/8/3
f 8/9/5 9/10/5 7/7/4
f 10/11/6 11/12/6 9/10/5
f 12/13/7 13/14/7 11/12/6
f 14/15/8 15/16/8 13/14/7
f 14/15/8 1/1/1 16/17/1
f 17/13/9 18/18/9 19/14/9
f 2/19/10 1/14/11 20/14/11
f 14/20/12 21/20/12 20/14/11
f 14/20/12 12/21/13 22/21/13
f 10/22/14 23/22/14 22/21/13
f 8/13/15 24/13/15 23/22/14
f 6/23/16 25/23/16 24/13/15
f 4/18/17 26/18/17 25/23/16
f 4/18/17 2/19/10 27/19/10
f 27/19/2 20/14/1 19/14/1
f 20/14/1 21/20/8 28/20/8
f 21/20/8 22/21/7 29/21/7
f 23/22/6 30/22/6 29/21/7
f 24/13/5 17/13/5 30/22/6
f 25/23/4 31/23/4 17/13/5
f 26/18/3 18/18/3 31/23/4
f 26/18/3 27/19/2 32/19/2
f 3/19/2 33/19/18 34/14/19
f 5/18/3 35/18/20 33/19/18
f 7/23/4 36/23/21 35/18/20
f 9/13/5 37/13/22 36/23/21
f 11/22/6 38/22/23 37/13/22
f 13/21/7 39/21/24 38/22/23
f 15/20/8 40/20/25 39/21/24
f 16/14/1 34/14/19 40/20/25
f 34/14/19 33/19/18 41/19/26
f 35/18/20 42/18/27 41/19/26
f 35/18/20 36/23/21 43/23/28
f 37/13/22 44/13/29 43/23/28
f 38/22/23 45/22/30 44/13/29
f 39/21/24 46/21/31 45/22/30
f 40/20/25 47/20/32 46/21/31
f 40/20/25 34/14/19 48/14/33
f 48/14/34 41/19/35 49/19/35
f 41/19/35 42/18/36 50/18/36
f 43/23/37 51/23/37 50/18/36
f 44/13/38 52/13/38 51/23/37
f 44/13/38 45/22/39 53/22/39
f 46/21/40 54/21/40 53/22/39
f 47/20/41 55/20/41 54/21/40
f 47/20/41 48/14/34 56/14/34
f 56/14/42 49/19/43 57/19/44
f 50/18/45 58/18/46 57/19/44
f 51/23/47 59/23/48 58/18/46
f 52/13/49 60/13/50 59/23/48
f 53/22/51 61/22/52 60/13/50
f 54/21/53 62/21/54 61/22/52
f 54/21/53 55/20/55 63/20/56
f 56/14/42 64/14/57 63/20/56
f 64/14/57 57/19/44 65/19/58
f 57/19/44 58/18/46 66/18/59
f 59/23/48 67/23/60 66/18/59
f 60/13/50 68/13/61 67/23/60
f 61/22/52 69/22/62 68/13/61
f 62/21/54 70/21/63 69/22/62
f 63/20/56 71/20/64 70/21/63
f 63/20/56 64/14/57 72/14/65
f 72/14/65 65/19/58 73/24/66
f 65/19/58 66/18/59 73/24/66
f 66/18/59 67/23/60 73/24/66
f 67/23/60 68/13/61 73/24/66
f 68/13/61 69/22/62 73/24/66
f 69/22/62 70/21/63 73/24/66
f 70/21/63 71/20/64 73/24/66
f 71/20/64 72/14/65 73/24/66
f 16/17/1 1/1/1 3/3/2
f 2/2/2 4/4/3 3/3/2
f 4/25/3 6/6/4 5/8/3
f 6/6/4 8/9/5 7/7/4
f 8/9/5 10/11/6 9/10/5
f 10/11/6 12/13/7 11/12/6
f 12/13/7 14/15/8 13/14/7
f 15/16/8 14/15/8 16/17/1
f 19/14/9 28/20/9 29/21/9
f 29/21/9 30/22/9 17/13/9
f 17/13/9 31/23/9 18/18/9
f 18/18/9 32/19/9 19/14/9
f 19/14/9 29/21/9 17/13/9
f 27/19/10 2/19/10 20/14/11
f 1/14/11 14/20/12 20/14/11
f 21/20/12 14/20/12 22/21/13
f 12/21/13 10/22/14 22/21/13
f 10/22/14 8/13/15 23/22/14
f 8/13/15 6/23/16 24/13/15
f 6/23/16 4/18/17 25/23/16
f 26/18/17 4/18/17 27/19/10
f 32/19/2 27/19/2 19/14/1
f 19/14/1 20/14/1 28/20/8
f 28/20/8 21/20/8 29/21/7
f 22/21/7 23/22/6 29/21/7
f 23/22/6 24/13/5 30/22/6
f 24/13/5 25/23/4 17/13/5
f 25/23/4 26/18/3 31/23/4
f 18/18/3 26/18/3 32/19/2
f 16/14/1 3/19/2 34/14/19
f 3/19/2 5/18/3 33/19/18
f 5/18/3 7/23/4 35/18/20
f 7/23/4 9/13/5 36/23/21
f 9/13/5 11/22/6 37/13/22
f 11/22/6 13/21/7 38/22/23
f 13/21/7 15/20/8 39/21/24
f 15/20/8 16/14/1 40/20/25
f 48/14/33 34/14/19 41/19/26
f 33/19/18 35/18/20 41/19/26
f 42/18/27 35/18/20 43/23/28
f 36/23/21 37/13/22 43/23/28
f 37/13/22 38/22/23 44/13/29
f 38/22/23 39/21/24 45/22/30
f 39/21/24 40/20/25 46/21/31
f 47/20/32 40/20/25 48/14/33
f 56/14/34 48/14/34 49/19/35
f 49/19/35 41/19/35 50/18/36
f 42/18/36 43/23/37 50/18/36
f 43/23/37 44/13/38 51/23/37
f 52/13/38 44/13/38 53/22/39
f 45/22/39 46/21/40 53/22/39
f 46/21/40 47/20/41 54/21/40
f 55/20/41 47/20/41 56/14/34
f 64/14/57 56/14/42 57/19/44
f 49/19/43 50/18/45 57/19/44
f 50/18/45 51/23/47 58/18/46
f 51/23/47 52/13/49 59/23/48
f 52/13/49 53/22/51 60/13/50
f 53/22/51 54/21/53 61/22/52
f 62/21/54 54/21/53 63/20/56
f 55/20/55 56/14/42 63/20/56
f 72/14/65 64/14/57 65/19/58
f 65/19/58 57/19/44 66/18/59
f 58/18/46 59/23/48 66/18/59
f 59/23/48 60/13/50 67/23/60
f 60/13/50 61/22/52 68/13/61
f 61/22/52 62/21/54 69/22/62
f 62/21/54 63/20/56 70/21/63
f 71/20/64 63/20/56 72/14/65
